<svg width="24" height="24" viewBox="0 0 24 24" fill="none" xmlns="http://www.w3.org/2000/svg">
<path fill-rule="evenodd" clip-rule="evenodd" d="M7.04445 9.84506C7.13808 6.4858 8.6474 3.46004 11.0289 1.28169L11.054 1.25885C11.179 1.14506 11.3065 1.03359 11.4363 0.924528C11.6808 0.718998 11.9336 0.522006 12.194 0.334045C12.2033 0.345524 12.212 0.356936 12.22 0.368268C12.22 0.368268 17.8051 6.94177 19.1425 8.79736C20.3531 10.4754 21.2255 12.4495 21.2286 14.6587C21.2257 16.3624 20.7612 17.9578 19.9536 19.3265C18.3482 22.0472 15.3868 23.8724 11.9991 23.8724C8.61135 23.8724 5.6499 22.0472 4.04449 19.3265C3.23433 17.9535 2.76953 16.3525 2.76953 14.6429C2.76953 13.0358 3.18027 11.5246 3.9025 10.2087C4.68724 9.95792 5.5321 9.82143 6.41239 9.82143C6.62526 9.82143 6.83607 9.82941 7.04445 9.84506ZM17.9256 9.67442C17.2951 8.79967 15.6052 6.73977 14.0276 4.84749C13.263 3.9303 12.5381 3.06841 11.9979 2.42817C9.86967 4.39453 8.56319 7.11143 8.54014 10.0969C11.6459 10.9224 13.9124 13.5087 13.9124 16.5714C13.9124 17.4401 13.7301 18.2704 13.398 19.033C14.4439 19.7346 15.6221 20.2782 16.8955 20.6241C18.6236 19.2077 19.7239 17.0614 19.7285 14.6583C19.7254 12.8575 19.015 11.1844 17.9256 9.67442ZM12.1596 18.0742C12.3249 17.5928 12.4124 17.0872 12.4124 16.5714C12.4124 14.4552 10.9171 12.4921 8.65245 11.6958C9.02381 14.1801 10.2933 16.413 12.1596 18.0742ZM7.09827 11.3546C7.41823 14.5605 9.03156 17.4104 11.4396 19.4329C10.7451 20.3682 9.71194 21.1129 8.44942 21.5109C7.64817 21.096 6.92867 20.545 6.32164 19.8885C6.30353 19.8689 6.28552 19.8492 6.26762 19.8295C5.02528 18.4573 4.26953 16.6377 4.26953 14.6429C4.26953 13.5138 4.51073 12.4441 4.94372 11.48C5.41211 11.3767 5.90388 11.3214 6.41239 11.3214C6.64539 11.3214 6.87418 11.3327 7.09827 11.3546ZM10.5059 22.2283C10.9891 22.3229 11.4883 22.3725 11.9991 22.3725C13.1568 22.3725 14.2554 22.1178 15.2416 21.6614C14.3185 21.31 13.4476 20.8619 12.6427 20.3304C12.0797 21.0848 11.352 21.7314 10.5059 22.2283Z" fill="#0B57D0"/>
</svg>
